# This file uses centimeters as units for non-parametric coordinates.

mtllib Outside_Bend_LP.mtl
g default
v 0.180700 0.000000 -2.969761
v 0.504985 0.000000 -2.586861
v 0.834397 0.000000 -2.209102
v 0.183152 1.000000 -2.972219
v 0.507933 1.000000 -2.589816
v 0.834397 0.600000 -2.209102
v 3.000000 1.000000 -4.000000
v 3.000000 1.000000 -3.499148
v 3.000000 0.600000 -3.000000
v 3.000000 0.000000 -4.000000
v 3.000000 0.000000 -3.499148
v 3.000000 0.000000 -3.000000
v -1.000000 0.000000 0.000000
v -0.500000 0.000000 0.000000
v -0.000000 0.000000 -0.000000
v -1.000000 1.000000 -0.000000
v -0.500000 1.000000 -0.000000
v 0.000000 0.600000 0.000000
v -0.675073 1.000000 -1.649183
v -0.675520 0.000000 -1.648734
v -0.225854 0.000000 -1.445086
v 0.218996 0.000000 -1.236609
v 0.218996 0.600000 -1.236609
v -0.224912 1.000000 -1.446030
v 1.436764 1.000000 -3.760417
v 1.436763 0.000000 -3.760417
v 1.610790 0.000000 -3.281116
v 1.786493 0.000000 -2.803495
v 1.786493 0.600000 -2.803495
v 1.612031 1.000000 -3.282360
v 2.182486 0.000000 -3.941434
v 2.182487 1.000000 -3.941434
v 2.274648 1.000000 -3.445644
v 2.367418 0.600000 -2.950463
v 2.367418 0.000000 -2.950463
v 2.274648 0.000000 -3.445644
v 0.767969 1.000000 -3.439467
v 0.767968 0.000000 -3.439467
v 1.015333 0.000000 -2.993230
v 1.272135 0.000000 -2.556456
v 1.272134 0.600000 -2.556456
v 1.019308 1.000000 -2.997216
v -0.304458 0.000000 -2.367359
v -0.303074 1.000000 -2.368747
v 0.090163 1.000000 -2.068403
v 0.480936 0.600000 -1.765590
v 0.480936 0.000000 -1.765590
v 0.088264 0.000000 -2.066499
v -0.916998 1.000000 -0.842736
v -0.916998 0.000000 -0.842735
v -0.427184 0.000000 -0.744610
v 0.056195 0.000000 -0.640032
v 0.056195 0.600000 -0.640032
v -0.427034 1.000000 -0.744760
v -0.979199 1.000000 -0.423407
v -0.979199 0.000000 -0.423406
v -0.481607 0.000000 -0.374398
v 0.014342 0.000000 -0.323742
v 0.014342 0.600000 -0.323741
v -0.481607 1.000000 -0.374398
v -0.813994 0.000000 -1.253948
v -0.813994 1.000000 -1.253949
v -0.340759 1.000000 -1.103557
v 0.124720 0.600000 -0.945389
v 0.124720 0.000000 -0.945389
v -0.341281 0.000000 -1.103033
v -0.504166 1.000000 -2.022031
v -0.505060 0.000000 -2.021135
v -0.082234 0.000000 -1.767253
v 0.338058 0.000000 -1.510831
v 0.338058 0.600000 -1.510831
v -0.080830 1.000000 -1.768660
v -0.075368 0.000000 -2.684352
v -0.073399 1.000000 -2.686327
v 0.286808 1.000000 -2.342762
v 0.646686 0.600000 -1.998866
v 0.646686 0.000000 -1.998867
v 0.284390 0.000000 -2.340337
v 0.465534 1.000000 -3.225100
v 0.462390 0.000000 -3.221947
v 0.748976 0.000000 -2.804750
v 1.043182 0.000000 -2.395193
v 1.043181 0.600000 -2.395192
v 0.752448 1.000000 -2.808232
v 1.091552 0.000000 -3.617275
v 1.091553 1.000000 -3.617275
v 1.307437 1.000000 -3.156448
v 1.520279 0.600000 -2.692570
v 1.520279 0.000000 -2.692570
v 1.302998 0.000000 -3.151997
v 1.800693 1.000000 -3.867929
v 1.800693 0.000000 -3.867929
v 1.934492 0.000000 -3.378085
v 2.069426 0.000000 -2.889379
v 2.069425 0.600000 -2.889379
v 1.934492 1.000000 -3.378085
v 2.583044 0.000000 -3.984814
v 2.583045 1.000000 -3.984815
v 2.630653 1.000000 -3.485819
v 2.678431 0.600000 -2.986993
v 2.678432 0.000000 -2.986993
v 2.630653 0.000000 -3.485819
vt 0.462113 0.503002
vt 0.379630 0.503167
vt 0.709562 0.502508
vt 0.627079 0.502672
vt 0.914171 0.502099
vt 0.815192 0.502296
vt 0.179406 0.998793
vt 0.298335 0.999688
vt 0.816181 0.997193
vt 0.997643 0.996831
vt 0.463103 0.997899
vt 0.915160 0.996995
vt 0.181196 0.760935
vt 0.380620 0.998064
vt 0.996654 0.501933
vt 0.061193 0.902755
vt 0.062267 0.760040
vt 0.628068 0.997569
vt 0.300125 0.761829
vt 0.710551 0.997405
vt 0.075526 0.001205
vt 0.188143 0.001398
vt 0.187757 0.226633
vt 0.075140 0.226440
vt 0.300760 0.001591
vt 0.300529 0.136731
vt 0.627079 0.002090
vt 0.709562 0.001925
vt 0.710551 0.496822
vt 0.628068 0.496987
vt 0.815192 0.001714
vt 0.816181 0.496611
vt 0.463103 0.497317
vt 0.380620 0.497482
vt 0.379630 0.002585
vt 0.462113 0.002420
vt 0.997643 0.496248
vt 0.915160 0.496413
vt 0.914171 0.001516
vt 0.996654 0.001351
vt 0.627574 0.249538
vt 0.462608 0.249868
vt 0.380125 0.250033
vt 0.997148 0.248800
vt 0.914665 0.248965
vt 0.815686 0.249162
vt 0.710056 0.249374
vt 0.627574 0.750121
vt 0.462608 0.750451
vt 0.380125 0.750615
vt 0.997148 0.749382
vt 0.914665 0.749547
vt 0.815686 0.749745
vt 0.710056 0.749956
vt 0.462855 0.874175
vt 0.627821 0.873845
vt 0.710304 0.873680
vt 0.815933 0.873469
vt 0.914913 0.873271
vt 0.380372 0.874340
vt 0.997396 0.873106
vt 0.627326 0.626397
vt 0.462361 0.626726
vt 0.379878 0.626891
vt 0.996901 0.625658
vt 0.914418 0.625823
vt 0.815439 0.626021
vt 0.709809 0.626232
vt 0.462855 0.373592
vt 0.627821 0.373263
vt 0.710304 0.373098
vt 0.815933 0.372887
vt 0.914913 0.372689
vt 0.380372 0.373757
vt 0.997396 0.372524
vt 0.627326 0.125814
vt 0.462361 0.126144
vt 0.379878 0.126309
vt 0.996901 0.125075
vt 0.914418 0.125240
vt 0.815439 0.125438
vt 0.709809 0.125649
vt 0.627203 0.063952
vt 0.462237 0.064282
vt 0.379754 0.064447
vt 0.996778 0.063213
vt 0.914294 0.063378
vt 0.815315 0.063576
vt 0.709685 0.063787
vt 0.462484 0.188006
vt 0.627450 0.187676
vt 0.709933 0.187511
vt 0.815562 0.187300
vt 0.914542 0.187102
vt 0.380001 0.188171
vt 0.997025 0.186937
vt 0.627697 0.311401
vt 0.462732 0.311730
vt 0.380249 0.311895
vt 0.997272 0.310662
vt 0.914789 0.310827
vt 0.815810 0.311025
vt 0.710180 0.311236
vt 0.462979 0.435454
vt 0.627945 0.435125
vt 0.710428 0.434960
vt 0.816057 0.434749
vt 0.915037 0.434551
vt 0.380496 0.435619
vt 0.997519 0.434386
vt 0.627203 0.564535
vt 0.462237 0.564864
vt 0.379754 0.565029
vt 0.996778 0.563796
vt 0.914294 0.563961
vt 0.815315 0.564158
vt 0.709685 0.564370
vt 0.462484 0.688589
vt 0.627450 0.688259
vt 0.709933 0.688094
vt 0.815562 0.687883
vt 0.914542 0.687685
vt 0.380001 0.688753
vt 0.997025 0.687520
vt 0.627697 0.811983
vt 0.462732 0.812313
vt 0.380249 0.812478
vt 0.997272 0.811244
vt 0.914789 0.811409
vt 0.815810 0.811607
vt 0.710180 0.811818
vt 0.462979 0.936037
vt 0.627945 0.935707
vt 0.710428 0.935542
vt 0.816057 0.935331
vt 0.915037 0.935133
vt 0.380496 0.936202
vt 0.997519 0.934968
vn 0.000000 1.000000 0.000001
vn 0.233062 0.936733 0.261175
vn 0.207788 0.942370 0.262226
vn 0.000000 1.000000 0.000000
vn 0.415124 0.781833 0.465198
vn 0.387559 0.783465 0.485778
vn 1.000000 0.000000 -0.000000
vn 1.000000 0.000000 -0.000000
vn 1.000000 0.000000 -0.000000
vn 1.000000 0.000000 -0.000000
vn 1.000000 0.000000 0.000000
vn 1.000000 0.000000 0.000000
vn -0.000000 -1.000000 -0.000000
vn -0.000000 -1.000000 -0.000000
vn -0.000000 -1.000000 -0.000000
vn -0.000000 -1.000000 -0.000000
vn 0.000000 -1.000000 0.000000
vn 0.000000 -1.000000 0.000000
vn 0.665371 -0.000000 0.746513
vn 0.621596 -0.000000 0.783338
vn 0.621596 -0.000000 0.783338
vn 0.665371 -0.000000 0.746513
vn -0.624281 -0.000299 -0.781200
vn -0.624528 -0.000299 -0.781002
vn -0.667067 -0.000224 -0.744998
vn -0.667067 -0.000224 -0.744998
vn -0.000000 0.000000 1.000000
vn -0.000000 0.000000 1.000000
vn -0.000000 0.000000 1.000000
vn -0.000000 0.000000 1.000000
vn -0.000000 0.000000 1.000000
vn -0.000000 0.000000 1.000000
vn 0.000000 1.000000 0.000000
vn 0.340842 0.939985 0.015982
vn 0.339344 0.940129 0.031684
vn 0.000000 1.000000 0.000000
vn 0.625065 0.780022 0.029308
vn 0.623780 0.779446 0.057984
vn -0.000000 -1.000000 -0.000000
vn -0.000000 -1.000000 -0.000000
vn -0.000000 -1.000000 -0.000000
vn -0.000000 -1.000000 -0.000000
vn 0.000000 -1.000000 0.000000
vn 0.000000 -1.000000 0.000000
vn 0.999020 -0.000000 0.044257
vn 0.996168 -0.000000 0.087464
vn 0.996168 -0.000000 0.087464
vn 0.999020 -0.000000 0.044257
vn -0.995185 -0.000000 -0.098017
vn -0.995185 -0.000000 -0.098017
vn -0.998795 -0.000000 -0.049068
vn -0.998795 -0.000000 -0.049068
vn -0.744298 0.000165 -0.667847
vn -0.778817 0.000271 -0.627251
vn -0.778700 0.000271 -0.627396
vn -0.744298 0.000165 -0.667847
vn -0.000000 -1.000000 -0.000000
vn -0.000000 -1.000000 -0.000000
vn -0.000000 -1.000000 -0.000000
vn -0.000000 -1.000000 -0.000000
vn 0.000000 -1.000000 0.000000
vn 0.000000 -1.000000 0.000000
vn 0.782027 -0.000000 0.623244
vn 0.782027 -0.000000 0.623244
vn 0.745935 -0.000000 0.666018
vn 0.745935 -0.000000 0.666018
vn 0.263718 0.941053 0.211829
vn 0.491310 0.778395 0.390788
vn 0.467239 0.779223 0.417731
vn 0.240747 0.946422 0.215238
vn 0.000000 1.000000 0.000000
vn 0.000000 1.000000 0.000001
vn -0.036395 -0.000000 -0.999338
vn -0.071456 -0.000000 -0.997444
vn -0.071456 -0.000000 -0.997444
vn -0.036395 -0.000000 -0.999338
vn -0.000000 -1.000000 -0.000000
vn -0.000000 -1.000000 -0.000000
vn -0.000000 -1.000000 -0.000000
vn -0.000000 -1.000000 -0.000000
vn 0.000000 -1.000000 0.000000
vn 0.000000 -1.000000 0.000000
vn 0.078071 -0.000000 0.996948
vn 0.078070 -0.000000 0.996948
vn 0.040417 -0.000000 0.999183
vn 0.040417 -0.000000 0.999183
vn 0.026079 0.939404 0.341819
vn 0.047014 0.781475 0.622163
vn 0.023808 0.780585 0.624596
vn 0.013093 0.939064 0.343493
vn 0.000000 1.000000 0.000000
vn 0.000000 1.000000 0.000000
vn -0.235891 0.000000 -0.971780
vn -0.235891 0.000000 -0.971779
vn -0.333256 -0.000000 -0.942837
vn -0.333256 0.000000 -0.942837
vn 0.000000 1.000000 0.000001
vn 0.112626 0.941936 0.316341
vn 0.082170 0.940939 0.328455
vn 0.000000 1.000000 0.000001
vn 0.206946 0.786480 0.581913
vn 0.149690 0.784957 0.601195
vn 0.337377 -0.000000 0.941370
vn 0.337377 -0.000000 0.941370
vn 0.245263 -0.000000 0.969457
vn 0.245263 -0.000000 0.969457
vn -0.000000 -1.000000 -0.000000
vn 0.000000 -1.000000 0.000000
vn 0.000000 -1.000000 0.000000
vn -0.000000 -1.000000 -0.000000
vn -0.000000 -1.000000 -0.000000
vn -0.000000 -1.000000 -0.000000
vn -0.432652 -0.000000 -0.901561
vn -0.432652 -0.000000 -0.901561
vn -0.000000 -1.000000 -0.000000
vn -0.000000 -1.000000 -0.000000
vn 0.000000 -1.000000 0.000000
vn 0.432940 -0.000000 0.901423
vn 0.432940 -0.000000 0.901423
vn 0.144613 0.942521 0.301233
vn 0.267700 0.786755 0.556195
vn 0.000000 1.000000 0.000001
vn -0.888410 0.000371 -0.459051
vn -0.888444 0.000371 -0.458986
vn -0.927510 0.000232 -0.373798
vn -0.927497 0.000232 -0.373830
vn 0.000000 1.000000 0.000000
vn 0.319024 0.939693 0.123292
vn 0.305104 0.939833 0.153704
vn 0.000000 1.000000 0.000000
vn 0.590806 0.774517 0.225991
vn 0.565793 0.774825 0.282002
vn 0.935621 -0.000000 0.353005
vn 0.935621 -0.000000 0.353005
vn 0.896149 -0.000000 0.443753
vn 0.896149 -0.000000 0.443753
vn -0.000000 -1.000000 -0.000000
vn 0.000000 -1.000000 0.000000
vn 0.000000 -1.000000 -0.000000
vn -0.000000 -1.000000 -0.000000
vn -0.000000 -1.000000 -0.000000
vn -0.000000 -1.000000 -0.000000
vn -0.957880 0.000068 -0.287168
vn -0.957880 0.000068 -0.287168
vn -0.000000 -1.000000 -0.000000
vn -0.000000 -1.000000 -0.000000
vn 0.000000 -1.000000 -0.000000
vn 0.964723 -0.000000 0.263266
vn 0.964723 -0.000000 0.263266
vn 0.328865 0.939802 0.092849
vn 0.608119 0.775405 0.170113
vn 0.000000 1.000000 0.000000
vn -0.980785 -0.000000 -0.195090
vn -0.980785 -0.000000 -0.195090
vn -0.000000 -1.000000 -0.000000
vn -0.000000 -1.000000 -0.000000
vn 0.000000 -1.000000 0.000000
vn 0.984600 -0.000000 0.174823
vn 0.984600 -0.000000 0.174823
vn 0.618570 0.777338 0.114526
vn 0.335606 0.939921 0.062592
vn 0.000000 1.000000 0.000000
vn -0.839110 0.000394 -0.543961
vn -0.839177 0.000394 -0.543859
vn -0.000000 -1.000000 -0.000000
vn -0.000000 -1.000000 -0.000000
vn 0.000000 -1.000000 0.000000
vn 0.845180 -0.000000 0.534481
vn 0.845180 -0.000000 0.534481
vn 0.532634 0.776212 0.337338
vn 0.286596 0.940327 0.183435
vn 0.000000 1.000000 0.000000
vn -0.531461 -0.000189 -0.847083
vn -0.531461 -0.000189 -0.847083
vn -0.000000 -1.000000 -0.000000
vn -0.000000 -1.000000 -0.000000
vn 0.000000 -1.000000 0.000000
vn 0.528965 -0.000000 0.848644
vn 0.528965 -0.000000 0.848644
vn 0.328691 0.785542 0.524296
vn 0.177029 0.942422 0.283729
vn 0.000000 1.000000 0.000000
vn -0.147764 -0.000000 -0.989023
vn -0.147764 -0.000000 -0.989023
vn -0.000000 -1.000000 -0.000000
vn -0.000000 -1.000000 -0.000000
vn 0.000000 -1.000000 0.000000
vn 0.158264 -0.000000 0.987397
vn 0.158264 -0.000000 0.987397
vn 0.096334 0.783089 0.614403
vn 0.053242 0.940019 0.336940
vn 0.000000 1.000000 0.000001
s 1
g Outside_Bend_LP
usemtl initialShadingGroup
f 4/4/1 5/3/2 84/117/3 79/111/4
f 5/3/2 6/6/5 83/116/6 84/117/3
s 2
f 7/8/7 8/7/8 11/13/9 10/19/10
f 8/7/8 9/16/11 12/17/12 11/13/9
s 3
f 80/112/13 81/113/14 2/2/15 1/1/16
f 81/114/14 82/115/17 3/5/18 2/15/15
s 4
f 3/5/19 82/115/20 83/116/21 6/6/22
s 5
f 79/111/23 80/112/24 1/1/25 4/4/26
s 6
f 13/21/27 14/22/28 17/23/29 16/24/30
f 14/22/28 15/25/31 18/26/32 17/23/29
s 7
f 16/27/33 17/28/34 60/89/35 55/83/36
f 17/28/34 18/31/37 59/88/38 60/89/35
s 8
f 56/84/39 57/85/40 14/35/41 13/36/42
f 57/86/40 58/87/43 15/39/44 14/40/41
s 9
f 15/39/45 58/87/46 59/88/47 18/31/48
s 10
f 55/83/49 56/84/50 13/36/51 16/27/52
f 1/33/53 73/104/54 74/105/55 4/30/56
s 8
f 1/33/57 2/34/58 78/109/59 73/104/60
f 2/37/58 3/38/61 77/108/62 78/110/59
s 9
f 76/107/63 77/108/64 3/38/65 6/32/66
s 7
f 75/106/67 76/107/68 6/32/69 5/29/70
f 74/105/71 75/106/67 5/29/70 4/30/72
s 5
f 10/11/73 97/132/74 98/133/75 7/18/76
s 3
f 10/11/77 11/14/78 102/137/79 97/132/80
f 11/10/78 12/12/81 101/136/82 102/138/79
s 4
f 100/135/83 101/136/84 12/12/85 9/9/86
s 1
f 99/134/87 100/135/88 9/9/89 8/20/90
f 98/133/91 99/134/87 8/20/90 7/18/92
s 5
f 91/125/93 92/126/94 26/49/95 25/48/96
s 1
f 25/48/97 30/54/98 96/131/99 91/125/100
f 30/54/98 29/53/101 95/130/102 96/131/99
s 4
f 29/53/103 28/52/104 94/129/105 95/130/106
s 3
f 93/128/107 94/129/108 28/52/109 27/51/110
f 92/126/111 93/127/107 27/50/110 26/49/112
s 5
f 25/48/96 26/49/95 85/118/113 86/119/114
s 3
f 26/49/112 27/50/110 90/123/115 85/118/116
f 27/51/110 28/52/109 89/122/117 90/124/115
s 4
f 88/121/118 89/122/119 28/52/104 29/53/103
s 1
f 87/120/120 88/121/121 29/53/101 30/54/98
f 86/119/122 87/120/120 30/54/98 25/48/97
s 10
f 67/97/123 68/98/124 20/42/125 19/41/126
s 7
f 19/41/127 24/47/128 72/103/129 67/97/130
f 24/47/128 23/46/131 71/102/132 72/103/129
s 9
f 23/46/133 22/45/134 70/101/135 71/102/136
s 8
f 69/100/137 70/101/138 22/45/139 21/44/140
f 68/98/141 69/99/137 21/43/140 20/42/142
s 10
f 19/41/126 20/42/125 61/90/143 62/91/144
s 8
f 20/42/142 21/43/140 66/95/145 61/90/146
f 21/44/140 22/45/139 65/94/147 66/96/145
s 9
f 64/93/148 65/94/149 22/45/134 23/46/133
s 7
f 63/92/150 64/93/151 23/46/131 24/47/128
f 62/91/152 63/92/150 24/47/128 19/41/127
s 10
f 49/76/153 50/77/154 56/84/50 55/83/49
s 8
f 50/77/155 51/78/156 57/85/40 56/84/39
f 51/79/156 52/80/157 58/87/43 57/86/40
s 9
f 59/88/47 58/87/46 52/80/158 53/81/159
s 7
f 60/89/35 59/88/38 53/81/160 54/82/161
f 55/83/36 60/89/35 54/82/161 49/76/162
s 10
f 62/91/144 61/90/143 50/77/154 49/76/153
s 7
f 49/76/162 54/82/161 63/92/150 62/91/152
f 54/82/161 53/81/160 64/93/151 63/92/150
s 9
f 53/81/159 52/80/158 65/94/149 64/93/148
s 8
f 66/96/145 65/94/147 52/80/157 51/79/156
f 61/90/146 66/95/145 51/78/156 50/77/155
s 10
f 44/70/163 43/69/164 68/98/124 67/97/123
s 8
f 43/69/165 48/74/166 69/99/137 68/98/141
f 48/75/166 47/73/167 70/101/138 69/100/137
s 9
f 71/102/136 70/101/135 47/73/168 46/72/169
s 7
f 72/103/129 71/102/132 46/72/170 45/71/171
f 67/97/130 72/103/129 45/71/171 44/70/172
s 10
f 74/105/55 73/104/54 43/69/164 44/70/163
s 7
f 44/70/172 45/71/171 75/106/67 74/105/71
f 45/71/171 46/72/170 76/107/68 75/106/67
s 9
f 46/72/169 47/73/168 77/108/64 76/107/63
s 8
f 78/110/59 77/108/62 47/73/167 48/75/166
f 73/104/60 78/109/59 48/74/166 43/69/165
s 5
f 37/62/173 38/63/174 80/112/24 79/111/23
s 3
f 38/63/175 39/64/176 81/113/14 80/112/13
f 39/65/176 40/66/177 82/115/17 81/114/14
s 4
f 83/116/21 82/115/20 40/66/178 41/67/179
s 1
f 84/117/3 83/116/6 41/67/180 42/68/181
f 79/111/4 84/117/3 42/68/181 37/62/182
s 5
f 86/119/114 85/118/113 38/63/174 37/62/173
s 1
f 37/62/182 42/68/181 87/120/120 86/119/122
f 42/68/181 41/67/180 88/121/121 87/120/120
s 4
f 41/67/179 40/66/178 89/122/119 88/121/118
s 3
f 90/124/115 89/122/117 40/66/177 39/65/176
f 85/118/116 90/123/115 39/64/176 38/63/175
s 5
f 32/56/183 31/55/184 92/126/94 91/125/93
s 3
f 31/55/185 36/60/186 93/127/107 92/126/111
f 36/61/186 35/59/187 94/129/108 93/128/107
s 4
f 95/130/106 94/129/105 35/59/188 34/58/189
s 1
f 96/131/99 95/130/102 34/58/190 33/57/191
f 91/125/100 96/131/99 33/57/191 32/56/192
s 5
f 98/133/75 97/132/74 31/55/184 32/56/183
s 1
f 32/56/192 33/57/191 99/134/87 98/133/91
f 33/57/191 34/58/190 100/135/88 99/134/87
s 4
f 34/58/189 35/59/188 101/136/84 100/135/83
s 3
f 102/138/79 101/136/82 35/59/187 36/61/186
f 97/132/80 102/137/79 36/60/186 31/55/185
