# This file uses centimeters as units for non-parametric coordinates.

mtllib Outside_Bend_Floor)_LP.mtl
g default
v 0.000000 0.000000 0.000000
v 3.000000 0.000000 0.000000
v 3.000000 0.000000 -3.000000
v 2.678431 0.000000 -2.986993
v 2.367418 0.000000 -2.950463
v 2.069425 0.000000 -2.889379
v 1.786493 0.000000 -2.803495
v 1.520279 0.000000 -2.692570
v 1.272134 0.000000 -2.556456
v 1.043181 0.000000 -2.395192
v 0.834397 0.000000 -2.209102
v 0.646686 0.000000 -1.998866
v 0.480936 0.000000 -1.765590
v 0.338058 0.000000 -1.510831
v 0.218996 0.000000 -1.236609
v 0.124720 0.000000 -0.945389
v 0.056195 0.000000 -0.640032
v 0.014342 0.000000 -0.323741
vt 0.000000 0.000000
vt 1.000000 0.000000
vt 1.000000 1.000000
vt 0.892810 0.995664
vt 0.789139 0.983488
vt 0.689808 0.963126
vt 0.595498 0.934498
vt 0.506760 0.897523
vt 0.424045 0.852152
vt 0.347727 0.798397
vt 0.278132 0.736367
vt 0.215562 0.666289
vt 0.160312 0.588530
vt 0.112686 0.503610
vt 0.072999 0.412203
vt 0.041573 0.315130
vt 0.018732 0.213344
vt 0.004781 0.107914
vn 0.000000 1.000000 0.000000
vn 0.000000 1.000000 0.000000
vn 0.000000 1.000000 0.000000
vn 0.000000 1.000000 0.000000
vn 0.000000 1.000000 0.000000
vn 0.000000 1.000000 0.000000
vn 0.000000 1.000000 0.000000
vn 0.000000 1.000000 0.000000
vn 0.000000 1.000000 0.000000
vn 0.000000 1.000000 0.000000
vn 0.000000 1.000000 0.000000
vn 0.000000 1.000000 0.000000
vn 0.000000 1.000000 0.000000
vn 0.000000 1.000000 0.000000
vn 0.000000 1.000000 0.000000
vn 0.000000 1.000000 0.000000
vn 0.000000 1.000000 0.000000
vn 0.000000 1.000000 0.000000
s off
g Outside_Bend_Floor_LP
usemtl initialShadingGroup
f 1/1/1 2/2/2 3/3/3 4/4/4 5/5/5 6/6/6 7/7/7 8/8/8 9/9/9 10/10/10 11/11/11 12/12/12 13/13/13 14/14/14 15/15/15 16/16/16 17/17/17 18/18/18
