# This file uses centimeters as units for non-parametric coordinates.

mtllib Wall_LP.mtl
g default
v -1.000000 0.000000 0.000000
v -0.500000 0.000000 0.000000
v -0.000000 0.000000 -0.000000
v -1.000000 1.000000 -0.000000
v -0.500000 1.000000 0.000000
v 0.000000 0.600000 0.000000
v -1.000000 1.000000 -3.000000
v -0.500000 1.000000 -3.000000
v 0.000000 0.600000 -3.000000
v -1.000000 0.000000 -3.000000
v -0.500000 0.000000 -3.000000
v -0.000000 0.000000 -3.000000
vt 0.462113 0.002420
vt 0.379630 0.002585
vt 0.709562 0.001925
vt 0.627079 0.002090
vt 0.914171 0.001516
vt 0.815192 0.001714
vt 0.179406 0.498210
vt 0.298335 0.499105
vt 0.816181 0.496611
vt 0.997643 0.496248
vt 0.463103 0.497317
vt 0.915160 0.496413
vt 0.181196 0.260352
vt 0.380620 0.497482
vt 0.188143 0.001398
vt 0.996654 0.001351
vt 0.061193 0.402172
vt 0.062267 0.259457
vt 0.628068 0.496987
vt 0.300125 0.261247
vt 0.300760 0.001591
vt 0.300529 0.136731
vt 0.075526 0.001205
vt 0.075140 0.226440
vt 0.710551 0.496822
vt 0.187757 0.226633
vn -0.000000 0.000000 1.000000
vn -0.000000 0.000000 1.000000
vn -0.000000 0.000000 1.000000
vn -0.000000 0.000000 1.000000
vn 0.000000 -0.000000 1.000000
vn 0.000000 -0.000000 1.000000
vn 0.000000 1.000000 0.000000
vn 0.371391 0.928477 0.000000
vn 0.371390 0.928477 0.000000
vn 0.000000 1.000000 0.000000
vn 0.624695 0.780869 0.000000
vn 0.624695 0.780869 0.000000
vn 0.000000 -0.000000 -1.000000
vn -0.000000 -0.000000 -1.000000
vn -0.000000 -0.000000 -1.000000
vn 0.000000 -0.000000 -1.000000
vn -0.000001 0.000000 -1.000000
vn -0.000001 0.000000 -1.000000
vn -0.000000 -1.000000 0.000000
vn -0.000000 -1.000000 0.000000
vn -0.000000 -1.000000 0.000000
vn -0.000000 -1.000000 0.000000
vn 0.000000 -1.000000 0.000000
vn 0.000000 -1.000000 0.000000
vn 1.000000 -0.000000 0.000000
vn 1.000000 -0.000000 0.000000
vn 1.000000 -0.000000 0.000000
vn 1.000000 -0.000000 0.000000
vn -1.000000 -0.000000 0.000000
vn -1.000000 -0.000000 0.000000
vn -1.000000 -0.000000 0.000000
vn -1.000000 -0.000000 0.000000
s 1
g Wall_LP
usemtl initialShadingGroup
f 1/23/1 2/15/2 5/26/3 4/24/4
f 2/15/2 3/21/5 6/22/6 5/26/3
s 2
f 4/4/7 5/3/8 8/25/9 7/19/10
f 5/3/8 6/6/11 9/9/12 8/25/9
s 3
f 7/8/13 8/7/14 11/13/15 10/20/16
f 8/7/14 9/17/17 12/18/18 11/13/15
s 4
f 10/11/19 11/14/20 2/2/21 1/1/22
f 11/10/20 12/12/23 3/5/24 2/16/21
s off
f 3/5/25 12/12/26 9/9/27 6/6/28
f 10/11/29 1/1/30 4/4/31 7/19/32
